<svg width="177" height="37" viewBox="0 0 177 37" fill="none" xmlns="http://www.w3.org/2000/svg">
<path d="M99.6143 11.4511C101.493 11.2427 102.362 11.5724 103.941 12.4506C105.067 14.3671 104.991 15.5254 103.091 16.8575C103.871 17.6173 104.023 17.911 104.523 18.8492C104.999 17.947 106.945 15.0422 108.172 15.552C108.351 15.7777 108.34 18.4655 108.163 18.6876C107.908 18.522 107.867 18.4999 107.572 18.4247C106.684 18.6708 105.997 19.8142 105.551 20.5525C107.439 22.0162 107.242 21.0765 108.188 21.532C108.325 21.9645 108.251 23.0219 108.236 23.5239C108.256 23.6492 108.235 23.7071 108.212 23.8333C107.195 24.4046 104.895 23.0607 104.128 22.3713C103.932 22.5333 103.729 22.6851 103.518 22.8263C101.206 24.3771 97.1309 24.7518 95.4276 22.177C94.9593 21.4636 94.7951 20.5925 94.9715 19.7574C95.2811 18.2857 96.3941 17.3875 97.5836 16.6209C97.0477 16.0857 96.6327 15.5187 96.4951 14.7669C96.3697 14.1161 96.5173 13.4426 96.9023 12.9032C97.5504 11.9841 98.559 11.6364 99.6143 11.4511ZM100.991 21.9193C104.591 20.7491 102.334 17.6147 99.3935 17.8742C97.4006 18.3125 96.4973 20.2304 98.3793 21.5662C99.1316 22.1001 100.1 21.9733 100.991 21.9193ZM100.945 16.2177C101.533 16.0644 102.03 15.9216 102.37 15.3653C102.546 15.0764 102.59 14.7259 102.493 14.4018C102.196 13.3847 101.26 13.1718 100.343 13.1074C97.6558 13.8124 98.1895 16.1581 100.945 16.2177Z" fill="#1B1B1B"/>
<path d="M131.006 13.666C131.049 13.6584 131.092 13.6516 131.135 13.6455C139.422 12.4732 140.408 23.0211 133.53 23.9142C133.453 23.9262 133.377 23.9377 133.3 23.9488C131.485 24.2108 129.556 24.0042 128.047 22.8764C125.222 20.7663 125.514 15.9307 128.741 14.3417C129.613 13.912 130.04 13.7913 131.006 13.666ZM132.925 22.2277C134.797 21.7709 135.952 19.8932 135.515 18.0175C135.078 16.142 133.211 14.9678 131.33 15.3847C130.094 15.6585 129.102 16.5741 128.731 17.7823C128.359 18.9905 128.665 20.3051 129.533 21.2249C130.401 22.1445 131.696 22.5275 132.925 22.2277Z" fill="#1B1B1B"/>
<path d="M173.023 11.5531C174.167 11.5347 175.394 11.4921 176.529 11.5473L176.616 11.6439C176.304 11.8657 176.127 12.453 176.124 12.8264C176.097 16.1631 176.132 19.5025 176.104 22.8401C176.101 23.2213 176.588 23.5176 176.567 23.8778L176.22 23.874C175.485 23.8989 173.512 24.0616 172.84 23.7846C172.718 23.734 173.073 23.5555 172.991 23.0332C172.03 21.8882 166.416 15.9291 165.578 15.4661C165.636 17.8599 165.479 20.4823 165.631 22.8756C165.665 23.3946 165.882 23.4474 166.258 23.7044L166.244 23.8127C165.664 23.8914 163.126 24.0619 162.71 23.7651C162.842 23.6382 163.085 23.3812 163.088 23.1699C163.154 19.6456 163.248 15.9855 163.085 12.4685C163.071 12.186 162.78 11.7386 162.646 11.531C163.715 11.5938 165.678 11.4144 166.611 11.5806C166.727 11.8544 166.388 12.2614 166.481 12.3545C167.728 13.6076 172.443 18.8673 173.572 19.8616L173.57 12.3086C173.396 12.1065 173.182 11.7797 173.023 11.5531Z" fill="#1B1B1B"/>
<path d="M113.859 13.7916C114.993 13.6306 116.326 13.7671 117.737 13.7261C120.969 13.6321 126.589 13.2788 124.391 18.408C124.082 19.1306 122.818 19.4151 122.05 19.5805C122.794 20.9429 124.362 23.0854 125.673 23.914C124.758 23.8251 122.966 23.8928 121.99 23.9012C121.768 23.8936 121.561 23.9137 121.387 23.7846L121.692 23.436C121.747 22.8258 119.949 20.4692 119.479 19.796C118.727 19.734 117.641 19.7699 116.861 19.7755C116.852 20.5872 116.78 22.4603 116.922 23.2995C116.955 23.4909 117.367 23.4488 117.604 23.7776C117.233 23.9588 114.472 23.9396 114.019 23.8351L113.994 23.6285C114.059 23.5492 114.122 23.4693 114.186 23.3887C114.232 23.3295 114.499 22.9451 114.497 22.915C114.395 20.1915 114.601 17.45 114.434 14.7322C114.403 14.2208 114.234 14.0787 113.859 13.7916ZM122.132 17.5182C124.266 14.9574 117.9 15.6792 116.857 15.5711L116.868 17.9676C118.189 17.9736 121.26 18.232 122.132 17.5182Z" fill="#1B1B1B"/>
<path d="M2.24781 11.0234C2.3469 11.1042 2.63386 11.4123 2.74382 11.4236C6.39093 11.7986 10.4378 11.3499 14.0856 11.607C13.4106 12.9676 11.8 14.6931 10.8745 15.9606C9.42018 17.9523 7.96487 19.9496 6.49479 21.9291C7.37886 21.9321 12.8136 22.097 13.191 21.8117C13.2181 21.7912 13.2443 21.7694 13.2719 21.7497C13.5013 21.5856 13.6594 21.4517 13.9399 21.5075C14.0664 22.024 14.0089 24.1305 13.8817 24.6632C13.8445 24.5879 13.6748 24.0112 13.6128 23.9918C11.8788 23.4477 3.23973 24.3151 2.08014 23.7679C1.9391 23.07 3.73474 21.1464 4.15897 20.5687C5.82267 18.3024 7.79198 15.9085 9.30921 13.5661C7.58292 13.4716 4.72012 13.5406 2.90139 13.5709C2.57449 13.5763 2.64872 13.9069 2.3085 14.068C1.96129 13.71 2.13728 11.5393 2.24781 11.0234Z" fill="#1B1B1B"/>
<path d="M47.9082 13.7625C48.6994 13.7472 51.1534 13.6558 51.75 13.8156L51.5065 14.3349C51.5136 14.3611 51.5848 14.6235 51.5848 14.6235C53.6291 16.4329 55.3868 18.525 57.416 20.3455C57.3401 18.4631 57.4322 16.593 57.3641 14.7175C57.3604 14.6127 56.9874 13.9757 56.9213 13.848C57.1977 13.6617 59.5309 13.7227 59.9517 13.7884L60.0143 13.9108C59.9259 13.9502 59.7249 14.0098 59.6686 14.0811C59.4303 14.3827 59.388 22.1479 59.5062 23.0309C59.5586 23.4219 59.77 23.5103 60.058 23.7317L59.9976 23.8478L59.4585 23.8922C58.7886 23.8775 56.9758 24.0648 56.5558 23.732L56.9157 23.4617C56.8844 22.7595 51.6597 18.1046 50.7769 17.068C50.6989 18.8792 50.7517 21.2698 50.7792 23.1319C50.7843 23.4782 51.0348 23.5547 51.3327 23.7509L51.2479 23.8643C50.5331 23.8904 48.8026 23.9519 48.1664 23.8296L48.093 23.7143L48.474 23.456C48.6814 23.0191 48.8413 14.924 48.2856 14.0208C48.2855 14.0205 47.9585 13.7969 47.9082 13.7625Z" fill="#1B1B1B"/>
<path d="M30.5717 13.3633L30.6559 13.3837C30.8395 13.7034 30.7746 15.466 30.6956 15.8845L30.5782 15.8547C30.3684 15.802 30.0005 15.6208 29.8195 15.6153C27.7452 15.552 25.6462 15.6856 23.5729 15.5575L23.5843 17.8957C24.8047 17.9066 26.2119 17.9417 27.4328 17.8475C27.7655 17.8219 27.7843 17.4783 28.3187 17.3964C28.5361 17.8555 28.4286 19.4885 28.4036 20.0542L28.2599 20.1336C27.3539 19.233 25.0078 19.6568 23.6178 19.556L23.5537 22.0734C24.7906 22.0673 29.4156 22.178 30.4018 22.0253C30.6847 21.8011 30.6557 21.7486 30.972 21.7274C31.1467 21.9585 31.1104 24.2384 30.9708 24.5164L30.8794 24.5033C30.845 24.2609 30.7709 23.9644 30.4579 23.901C28.9651 23.5985 21.6115 24.1997 20.7877 23.7606C21.3776 22.9645 21.4377 14.4851 20.7676 13.915C21.4447 13.2391 29.4256 14.36 30.5717 13.3633Z" fill="#1B1B1B"/>
<path d="M160.655 13.3086C160.802 13.5679 160.746 15.5606 160.678 15.9188C158.869 15.2827 155.72 15.7965 153.567 15.5342L153.584 17.8787C154.573 17.8857 156.808 17.9546 157.705 17.8361C157.864 17.6753 157.907 17.5929 158.024 17.4029L158.26 17.3818L158.36 17.5189C158.464 18.0493 158.454 19.5287 158.338 20.0509L158.139 20.1288C158.014 19.9537 157.903 19.8101 157.766 19.6432C157.409 19.568 154.165 19.6108 153.594 19.6135L153.571 22.0617C155.149 22.1112 158.561 22.0731 160.314 22.0534C160.377 21.9979 160.432 21.9496 160.478 21.9088C160.694 21.7339 160.626 21.7397 160.874 21.7033L161.019 21.9186C161.11 22.4892 161.07 23.903 160.902 24.4449L160.752 24.4705L160.644 24.0365C159.984 23.5636 151.476 24.1046 150.741 23.8443C150.772 23.3072 151.209 23.3194 151.207 22.779C151.196 20.1138 151.212 17.4481 151.209 14.7827C151.209 14.1778 150.772 14.331 150.734 13.801C151.537 13.3887 158.861 14.139 160.305 13.5839C160.366 13.5601 160.569 13.3848 160.625 13.3354L160.655 13.3086Z" fill="#1B1B1B"/>
<path d="M65.2221 13.6671C66.1447 13.5108 67.6958 13.6488 68.5914 13.9245C69.1005 14.0812 71.2022 14.5795 71.3859 14.8974L70.3957 16.9571C68.9536 14.8173 63.5833 14.8239 63.7477 16.788C64.7078 18.2351 71.3227 16.9148 71.6939 20.2257C71.9553 22.5582 70.4751 23.616 68.3622 23.9109C66.8187 24.1222 65.9921 24.099 64.458 23.7837C63.6434 23.6161 62.2523 23.052 61.543 23.1351C61.8485 22.3398 62.1876 21.5394 62.4977 20.7332C63.5791 22.2569 65.6859 22.4281 67.4312 22.268C68.2075 22.1967 69.6194 21.8442 69.4647 20.8185C68.4917 19.5824 64.0194 20.3791 62.6619 19.0638C62.1932 18.6094 61.7038 18.2521 61.6518 17.526C61.4772 15.0872 62.9774 13.977 65.2221 13.6671Z" fill="#1B1B1B"/>
<path d="M75.9755 18.0278C77.2588 17.1129 78.6354 16.0156 79.8335 14.9876C80.2181 14.6574 80.3124 14.5576 80.3306 14.1209L79.9129 13.9109L79.9821 13.7938C80.4516 13.6987 84.0014 13.6251 84.3003 13.8923C84.0566 14.294 83.665 14.24 83.1654 14.6519C81.8643 15.7242 80.4241 16.7953 79.1887 17.9311C80.3334 19.211 81.4708 20.4974 82.6009 21.7902C83.4733 22.78 83.7995 23.277 84.9929 23.8636C84.1126 23.8761 81.104 23.9702 80.4412 23.8041C80.3929 23.4776 80.7391 23.7195 80.9087 23.3466C79.8859 21.9372 78.6539 20.6855 77.577 19.2628C77.0501 19.7599 76.6462 19.9845 76.0353 20.3562C76.002 21.1854 75.9419 22.1364 76.0146 22.9631C76.0627 23.5098 76.1984 23.4761 76.5842 23.76C76.2229 24.0094 73.6032 23.9031 73.1171 23.7738C73.5755 23.187 73.6052 23.1945 73.6015 22.3901C73.5893 19.7652 73.6921 17.062 73.5532 14.4451C73.5458 14.3049 73.1128 13.8623 72.9941 13.7388C73.7712 13.7478 75.811 13.6714 76.4504 13.8018C76.4759 14.267 76.003 14.2209 75.9913 14.7495C75.9679 15.8168 75.977 16.9648 75.9755 18.0278Z" fill="#1B1B1B"/>
<path d="M139.374 13.2383C139.527 13.372 139.742 13.6589 139.949 13.6774C143.077 13.9579 146.36 13.5509 149.486 13.8072C148.359 15.2318 147.262 16.6799 146.195 18.1506C145.449 19.1581 143.941 21.2888 143.065 22.0324C143.383 22.0562 143.703 22.0677 144.024 22.067C145.342 22.0762 147.2 22.0916 148.558 22.0633C148.629 22.0619 148.96 21.7342 149.037 21.6592L149.179 21.7448C149.283 22.4125 149.208 23.7099 149.186 24.4378L149.037 24.42C148.881 24.0414 148.754 23.8988 148.346 23.8561C147.193 23.7357 139.7 24.1317 139.272 23.6964C139.609 22.3729 141.963 19.9151 142.834 18.7523C143.616 17.7072 144.441 16.5919 145.213 15.5278C143.697 15.5992 142.166 15.5626 140.647 15.5871C139.866 15.5996 139.962 15.7901 139.343 15.8949C139.185 15.3886 139.263 13.785 139.374 13.2383Z" fill="#1B1B1B"/>
<path d="M32.3828 13.7261C32.9563 13.733 35.5069 13.6389 35.7821 13.8962L35.5727 14.0252C35.1515 14.7535 35.2969 16.3647 35.2999 17.2674C35.3105 18.8705 35.3054 20.4736 35.2848 22.0765C37.2125 22.0675 39.3311 22.0996 41.2733 22.059C41.2119 22.0602 41.6924 21.7335 41.9347 21.6818C42.0489 22.1719 42.0014 23.7778 41.9974 24.3682L41.8167 24.4526L41.6982 24.0406C41.0469 23.5274 33.4388 24.2076 32.5103 23.7534C32.6072 23.4935 32.8759 23.1667 32.8713 22.9044C32.821 20.0916 33.0427 17.2239 32.7919 14.4251C32.7699 14.1777 32.5479 13.9059 32.3828 13.7261Z" fill="#1B1B1B"/>
<path d="M42.6953 13.7668C43.2157 13.7328 46.0365 13.6639 46.3229 13.8572C45.9711 14.1875 45.8987 14.7386 45.9467 15.1879C46.1276 16.8768 45.5227 22.4743 46.307 23.7851L46.3275 23.8185L46.177 23.8858C45.6145 23.8939 43.2153 23.9941 42.9027 23.7538C43.4531 23.2527 43.4247 23.0658 43.4151 22.3138C43.382 19.7024 43.491 17.0655 43.3613 14.4608C43.3448 14.1297 42.9372 13.9265 42.6953 13.7668Z" fill="#1B1B1B"/>
<path d="M85.6094 13.7891C86.0249 13.7412 88.6234 13.644 88.953 13.7995C89.0529 14.1623 88.9186 14.1532 88.771 14.5336C88.7366 14.6246 88.6012 14.8227 88.6068 14.9644C88.7177 17.6537 88.4481 20.458 88.7222 23.1223C88.7477 23.3647 89.0506 23.7412 89.1927 23.9176C88.427 23.8368 86.1749 24.0523 85.7121 23.7591C85.8519 23.6371 85.9729 23.5385 86.1203 23.4254C86.5306 22.4177 86.1052 17.0501 86.272 15.6349C86.3542 14.9406 86.2422 14.2004 85.6094 13.7891Z" fill="#1B1B1B"/>
<path d="M15.2871 13.7797C16.1427 13.6898 18.0768 13.7345 19.0114 13.7288C18.9338 13.8045 18.4389 14.2932 18.4299 14.3856C18.1611 17.1675 18.3665 20.2562 18.3397 23.0781C18.3361 23.4525 18.7554 23.3907 18.9146 23.8728C18.323 23.8843 15.8243 24.009 15.4847 23.7454C16.0506 23.2266 15.9991 22.9294 15.988 22.1601C15.9501 19.5456 16.0742 16.8992 15.8911 14.2937C15.8733 14.0423 15.4905 13.8963 15.2871 13.7797Z" fill="#1B1B1B"/>
</svg>
