<svg preserveAspectRatio="none" width="100%" height="100%" overflow="visible" style="display: block;" viewBox="0 0 177 37" fill="none" xmlns="http://www.w3.org/2000/svg">
<g id="image 15 [Vectorized]">
<path id="Vector" d="M99.6143 11.4516C101.493 11.2432 102.362 11.5729 103.941 12.4511C105.067 14.3676 104.991 15.5258 103.091 16.858C103.871 17.6178 104.023 17.9115 104.523 18.8497C104.999 17.9475 106.945 15.0427 108.172 15.5525C108.351 15.7782 108.34 18.466 108.163 18.688C107.908 18.5225 107.867 18.5004 107.572 18.4252C106.684 18.6713 105.997 19.8147 105.551 20.553C107.439 22.0167 107.242 21.077 108.188 21.5325C108.325 21.965 108.251 23.0224 108.236 23.5244C108.256 23.6497 108.235 23.7076 108.212 23.8338C107.195 24.4051 104.895 23.0612 104.128 22.3718C103.932 22.5338 103.729 22.6856 103.518 22.8268C101.206 24.3776 97.1309 24.7523 95.4276 22.1775C94.9593 21.4641 94.7951 20.5929 94.9715 19.7579C95.2811 18.2862 96.3941 17.3879 97.5836 16.6213C97.0477 16.0862 96.6327 15.5192 96.4951 14.7673C96.3697 14.1166 96.5173 13.4431 96.9023 12.9037C97.5504 11.9846 98.559 11.6369 99.6143 11.4516ZM100.991 21.9198C104.591 20.7496 102.334 17.6152 99.3935 17.8746C97.4006 18.313 96.4973 20.2309 98.3793 21.5667C99.1316 22.1006 100.1 21.9738 100.991 21.9198ZM100.945 16.2181C101.533 16.0649 102.03 15.9221 102.37 15.3658C102.546 15.0768 102.59 14.7264 102.493 14.4023C102.196 13.3852 101.26 13.1723 100.343 13.1078C97.6558 13.8129 98.1895 16.1586 100.945 16.2181Z" fill="var(--fill-0, #1B1B1B)"/>
<path id="Vector_2" d="M131.006 13.667C131.049 13.6594 131.092 13.6526 131.135 13.6465C139.422 12.4741 140.408 23.0221 133.53 23.9152C133.453 23.9272 133.377 23.9387 133.3 23.9498C131.485 24.2117 129.556 24.0051 128.047 22.8774C125.222 20.7673 125.514 15.9316 128.741 14.3427C129.613 13.913 130.04 13.7923 131.006 13.667ZM132.925 22.2286C134.797 21.7719 135.952 19.8941 135.515 18.0185C135.078 16.143 133.211 14.9688 131.33 15.3857C130.094 15.6595 129.102 16.575 128.731 17.7833C128.359 18.9915 128.665 20.3061 129.533 21.2258C130.401 22.1455 131.696 22.5285 132.925 22.2286Z" fill="var(--fill-0, #1B1B1B)"/>
<path id="Vector_3" d="M173.023 11.5536C174.167 11.5352 175.394 11.4926 176.529 11.5478L176.616 11.6444C176.304 11.8662 176.127 12.4535 176.124 12.8269C176.097 16.1636 176.132 19.503 176.104 22.8406C176.101 23.2218 176.588 23.5181 176.567 23.8782L176.22 23.8745C175.485 23.8994 173.512 24.0621 172.84 23.7851C172.718 23.7345 173.073 23.556 172.991 23.0337C172.03 21.8887 166.416 15.9296 165.578 15.4666C165.636 17.8603 165.479 20.4828 165.631 22.8761C165.665 23.3951 165.882 23.4479 166.258 23.7049L166.244 23.8131C165.664 23.8919 163.126 24.0624 162.71 23.7656C162.842 23.6387 163.085 23.3817 163.088 23.1704C163.154 19.646 163.248 15.9859 163.085 12.469C163.071 12.1865 162.78 11.7391 162.646 11.5315C163.715 11.5943 165.678 11.4149 166.611 11.5811C166.727 11.8549 166.388 12.2619 166.481 12.355C167.728 13.6081 172.443 18.8678 173.572 19.8621L173.57 12.3091C173.396 12.1069 173.182 11.7801 173.023 11.5536Z" fill="var(--fill-0, #1B1B1B)"/>
<path id="Vector_4" d="M113.859 13.7911C114.993 13.6301 116.326 13.7666 117.737 13.7256C120.969 13.6316 126.589 13.2783 124.391 18.4075C124.082 19.1301 122.818 19.4146 122.05 19.58C122.794 20.9425 124.362 23.0849 125.673 23.9135C124.758 23.8247 122.966 23.8923 121.99 23.9007C121.768 23.8931 121.561 23.9133 121.387 23.7841L121.692 23.4355C121.747 22.8253 119.949 20.4687 119.479 19.7955C118.727 19.7335 117.641 19.7694 116.861 19.775C116.852 20.5867 116.78 22.4598 116.922 23.299C116.955 23.4904 117.367 23.4483 117.604 23.7771C117.233 23.9583 114.472 23.9391 114.019 23.8346L113.994 23.628C114.059 23.5488 114.122 23.4688 114.186 23.3882C114.232 23.329 114.499 22.9446 114.497 22.9146C114.395 20.1911 114.601 17.4495 114.434 14.7317C114.403 14.2203 114.234 14.0782 113.859 13.7911ZM122.132 17.5177C124.266 14.9569 117.9 15.6787 116.857 15.5706L116.868 17.9671C118.189 17.9731 121.26 18.2315 122.132 17.5177Z" fill="var(--fill-0, #1B1B1B)"/>
<path id="Vector_5" d="M2.24781 11.0229C2.3469 11.1037 2.63386 11.4118 2.74382 11.4232C6.39093 11.7981 10.4378 11.3494 14.0856 11.6065C13.4106 12.9671 11.8 14.6926 10.8745 15.9601C9.42018 17.9518 7.96487 19.9491 6.49479 21.9286C7.37886 21.9316 12.8136 22.0965 13.191 21.8112C13.2181 21.7907 13.2443 21.7689 13.2719 21.7492C13.5013 21.5851 13.6594 21.4512 13.9399 21.507C14.0664 22.0236 14.0089 24.1301 13.8817 24.6627C13.8445 24.5874 13.6748 24.0107 13.6128 23.9913C11.8788 23.4472 3.23973 24.3146 2.08014 23.7674C1.9391 23.0695 3.73474 21.146 4.15897 20.5682C5.82267 18.3019 7.79198 15.908 9.30921 13.5656C7.58292 13.4711 4.72012 13.5401 2.90139 13.5704C2.57449 13.5758 2.64872 13.9064 2.3085 14.0675C1.96129 13.7095 2.13728 11.5388 2.24781 11.0229Z" fill="var(--fill-0, #1B1B1B)"/>
<path id="Vector_6" d="M47.9082 13.763C48.6994 13.7477 51.1534 13.6563 51.75 13.8161L51.5065 14.3354C51.5136 14.3616 51.5848 14.624 51.5848 14.624C53.6291 16.4334 55.3868 18.5255 57.416 20.346C57.3401 18.4636 57.4322 16.5935 57.3641 14.718C57.3604 14.6132 56.9874 13.9762 56.9213 13.8485C57.1977 13.6622 59.5309 13.7232 59.9517 13.7889L60.0143 13.9112C59.9259 13.9507 59.7249 14.0103 59.6686 14.0816C59.4303 14.3832 59.388 22.1484 59.5062 23.0313C59.5586 23.4223 59.77 23.5108 60.058 23.7322L59.9976 23.8483L59.4585 23.8926C58.7886 23.878 56.9758 24.0653 56.5558 23.7325L56.9157 23.4622C56.8844 22.76 51.6597 18.1051 50.7769 17.0685C50.6989 18.8797 50.7517 21.2703 50.7792 23.1324C50.7843 23.4787 51.0348 23.5552 51.3327 23.7514L51.2479 23.8648C50.5331 23.8909 48.8026 23.9524 48.1664 23.8301L48.093 23.7148L48.474 23.4565C48.6814 23.0196 48.8413 14.9245 48.2856 14.0213C48.2855 14.021 47.9585 13.7974 47.9082 13.763Z" fill="var(--fill-0, #1B1B1B)"/>
<path id="Vector_7" d="M30.5717 13.3638L30.6559 13.3842C30.8395 13.7039 30.7746 15.4665 30.6956 15.885L30.5782 15.8552C30.3684 15.8025 30.0005 15.6213 29.8195 15.6158C27.7452 15.5524 25.6462 15.6861 23.5729 15.558L23.5843 17.8961C24.8047 17.9071 26.2119 17.9422 27.4328 17.848C27.7655 17.8224 27.7843 17.4788 28.3187 17.3969C28.5361 17.856 28.4286 19.489 28.4036 20.0547L28.2599 20.1341C27.3539 19.2335 25.0078 19.6573 23.6178 19.5565L23.5537 22.0739C24.7906 22.0678 29.4156 22.1785 30.4018 22.0258C30.6847 21.8015 30.6557 21.7491 30.972 21.7279C31.1467 21.959 31.1104 24.2388 30.9708 24.5168L30.8794 24.5038C30.845 24.2614 30.7709 23.9649 30.4579 23.9015C28.9651 23.599 21.6115 24.2001 20.7877 23.7611C21.3776 22.965 21.4377 14.4856 20.7676 13.9155C21.4447 13.2396 29.4256 14.3605 30.5717 13.3638Z" fill="var(--fill-0, #1B1B1B)"/>
<path id="Vector_8" d="M160.655 13.3096C160.802 13.5688 160.746 15.5616 160.678 15.9197C158.869 15.2837 155.72 15.7974 153.567 15.5352L153.584 17.8797C154.573 17.8866 156.808 17.9556 157.705 17.8371C157.864 17.6763 157.907 17.5939 158.024 17.4039L158.26 17.3827L158.36 17.5199C158.464 18.0503 158.454 19.5297 158.338 20.0519L158.139 20.1298C158.014 19.9547 157.903 19.8111 157.766 19.6442C157.409 19.569 154.165 19.6118 153.594 19.6144L153.571 22.0627C155.149 22.1122 158.561 22.074 160.314 22.0544C160.377 21.9988 160.432 21.9506 160.478 21.9098C160.694 21.7349 160.626 21.7407 160.874 21.7043L161.019 21.9196C161.11 22.4902 161.07 23.904 160.902 24.4459L160.752 24.4715L160.644 24.0375C159.984 23.5645 151.476 24.1056 150.741 23.8453C150.772 23.3081 151.209 23.3203 151.207 22.78C151.196 20.1148 151.212 17.4491 151.209 14.7837C151.209 14.1787 150.772 14.332 150.734 13.8019C151.537 13.3896 158.861 14.1399 160.305 13.5849C160.366 13.5611 160.569 13.3858 160.625 13.3364L160.655 13.3096Z" fill="var(--fill-0, #1B1B1B)"/>
<path id="Vector_9" d="M65.2221 13.6656C66.1447 13.5094 67.6958 13.6473 68.5914 13.923C69.1005 14.0797 71.2022 14.578 71.3859 14.896L70.3957 16.9557C68.9536 14.8158 63.5833 14.8225 63.7477 16.7866C64.7078 18.2336 71.3227 16.9133 71.6939 20.2242C71.9553 22.5567 70.4751 23.6145 68.3622 23.9094C66.8187 24.1208 65.9921 24.0976 64.458 23.7822C63.6434 23.6146 62.2523 23.0505 61.543 23.1336C61.8485 22.3384 62.1876 21.538 62.4977 20.7318C63.5791 22.2554 65.6859 22.4267 67.4312 22.2665C68.2075 22.1952 69.6194 21.8427 69.4647 20.8171C68.4917 19.5809 64.0194 20.3776 62.6619 19.0623C62.1932 18.608 61.7038 18.2507 61.6518 17.5246C61.4772 15.0857 62.9774 13.9756 65.2221 13.6656Z" fill="var(--fill-0, #1B1B1B)"/>
<path id="Vector_10" d="M75.9755 18.0292C77.2588 17.1144 78.6354 16.0171 79.8335 14.989C80.2181 14.6589 80.3124 14.5591 80.3306 14.1224L79.9129 13.9124L79.9821 13.7953C80.4516 13.7001 84.0014 13.6266 84.3003 13.8938C84.0566 14.2955 83.665 14.2415 83.1654 14.6534C81.8643 15.7257 80.4241 16.7968 79.1887 17.9326C80.3334 19.2125 81.4708 20.4988 82.6009 21.7917C83.4733 22.7814 83.7995 23.2784 84.9929 23.8651C84.1126 23.8776 81.104 23.9716 80.4412 23.8056C80.3929 23.479 80.7391 23.721 80.9087 23.3481C79.8859 21.9386 78.6539 20.687 77.577 19.2643C77.0501 19.7614 76.6462 19.9859 76.0353 20.3576C76.002 21.1869 75.9419 22.1379 76.0146 22.9646C76.0627 23.5113 76.1984 23.4776 76.5842 23.7615C76.2229 24.0109 73.6032 23.9045 73.1171 23.7752C73.5755 23.1885 73.6052 23.1959 73.6015 22.3915C73.5893 19.7667 73.6921 17.0635 73.5532 14.4466C73.5458 14.3064 73.1128 13.8638 72.9941 13.7403C73.7712 13.7493 75.811 13.6729 76.4504 13.8033C76.4759 14.2685 76.003 14.2223 75.9913 14.7509C75.9679 15.8183 75.977 16.9662 75.9755 18.0292Z" fill="var(--fill-0, #1B1B1B)"/>
<path id="Vector_11" d="M139.374 13.2378C139.527 13.3715 139.742 13.6584 139.949 13.6769C143.077 13.9574 146.36 13.5504 149.486 13.8067C148.359 15.2313 147.262 16.6794 146.195 18.1501C145.449 19.1577 143.941 21.2883 143.065 22.0319C143.383 22.0557 143.703 22.0672 144.024 22.0665C145.342 22.0757 147.2 22.0911 148.558 22.0628C148.629 22.0614 148.96 21.7337 149.037 21.6587L149.179 21.7443C149.283 22.412 149.208 23.7094 149.186 24.4373L149.037 24.4195C148.881 24.0409 148.754 23.8983 148.346 23.8556C147.193 23.7352 139.7 24.1312 139.272 23.6959C139.609 22.3724 141.963 19.9146 142.834 18.7518C143.616 17.7067 144.441 16.5914 145.213 15.5273C143.697 15.5987 142.166 15.5621 140.647 15.5866C139.866 15.5991 139.962 15.7896 139.343 15.8944C139.185 15.3881 139.263 13.7845 139.374 13.2378Z" fill="var(--fill-0, #1B1B1B)"/>
<path id="Vector_12" d="M32.3828 13.7256C32.9563 13.7325 35.5069 13.6385 35.7821 13.8957L35.5727 14.0247C35.1515 14.753 35.2969 16.3642 35.2999 17.267C35.3105 18.87 35.3054 20.4731 35.2848 22.076C37.2125 22.067 39.3311 22.0991 41.2733 22.0585C41.2119 22.0597 41.6924 21.733 41.9347 21.6814C42.0489 22.1714 42.0014 23.7773 41.9974 24.3677L41.8167 24.4521L41.6982 24.0401C41.0469 23.5269 33.4388 24.2071 32.5103 23.7529C32.6072 23.493 32.8759 23.1662 32.8713 22.9039C32.821 20.0912 33.0427 17.2234 32.7919 14.4246C32.7699 14.1772 32.5479 13.9054 32.3828 13.7256Z" fill="var(--fill-0, #1B1B1B)"/>
<path id="Vector_13" d="M42.6953 13.7649C43.2157 13.7308 46.0365 13.662 46.3229 13.8552C45.9711 14.1856 45.8987 14.7366 45.9467 15.1859C46.1276 16.8748 45.5227 22.4723 46.307 23.7832L46.3275 23.8166L46.177 23.8839C45.6145 23.892 43.2153 23.9921 42.9027 23.7518C43.4531 23.2508 43.4247 23.0638 43.4151 22.3119C43.382 19.7005 43.491 17.0636 43.3613 14.4588C43.3448 14.1277 42.9372 13.9245 42.6953 13.7649Z" fill="var(--fill-0, #1B1B1B)"/>
<path id="Vector_14" d="M85.6094 13.7886C86.0249 13.7407 88.6234 13.6435 88.953 13.799C89.0529 14.1618 88.9186 14.1527 88.771 14.5331C88.7366 14.6242 88.6012 14.8222 88.6068 14.9639C88.7177 17.6532 88.4481 20.4575 88.7222 23.1218C88.7477 23.3642 89.0506 23.7407 89.1927 23.9171C88.427 23.8363 86.1749 24.0519 85.7121 23.7587C85.8519 23.6366 85.9729 23.538 86.1203 23.4249C86.5306 22.4172 86.1052 17.0496 86.272 15.6344C86.3542 14.9401 86.2422 14.1999 85.6094 13.7886Z" fill="var(--fill-0, #1B1B1B)"/>
<path id="Vector_15" d="M15.2871 13.7802C16.1427 13.6903 18.0768 13.735 19.0114 13.7293C18.9338 13.805 18.4389 14.2937 18.4299 14.3861C18.1611 17.168 18.3665 20.2567 18.3397 23.0786C18.3361 23.4529 18.7554 23.3912 18.9146 23.8733C18.323 23.8848 15.8243 24.0095 15.4847 23.7459C16.0506 23.2271 15.9991 22.9299 15.988 22.1606C15.9501 19.5461 16.0742 16.8997 15.8911 14.2941C15.8733 14.0428 15.4905 13.8968 15.2871 13.7802Z" fill="var(--fill-0, #1B1B1B)"/>
</g>
</svg>
