<svg width="100" height="29" viewBox="0 0 100 29" fill="none" xmlns="http://www.w3.org/2000/svg">
<g clip-path="url(#clip0_119_1712)">
<path d="M66.1673 1.14619L63.4023 0C63.332 0.321738 63.6839 0.382063 63.6839 0.693746C63.704 2.51357 63.3018 4.27308 63.4124 6.11301C63.4225 6.33421 63.3018 6.58556 63.3119 6.76654C63.3822 7.67143 65.3127 7.75186 65.5339 8.08365C65.7551 9.29017 66.0265 10.4866 66.2879 11.6831C66.3684 12.035 66.2879 12.407 66.3684 12.7388C66.6901 14.076 68.2586 14.6994 66.3583 15.8958C63.7945 17.5045 61.0396 17.5548 58.3149 18.4396C56.9676 18.882 56.9777 19.4148 56.2336 20.2695C55.9923 20.551 55.0874 21.295 54.997 21.4961C54.9366 21.6469 55.2181 21.7877 55.188 22.1597C55.1478 22.7127 54.1323 23.0143 54.5948 23.708C55.6002 24.0599 56.5654 23.5773 57.4703 23.4768C59.6018 23.2355 62.0249 23.145 64.086 22.6021C64.9608 22.3708 68.0876 21.1844 68.6105 20.6113C69.817 19.2942 69.626 18.2888 69.8069 16.7303C69.827 16.5494 70.0784 16.3684 70.0885 16.0467C70.0885 15.6344 69.5455 15.1016 69.3746 14.629C68.8216 13.1309 67.977 9.5918 68.3189 8.09371C68.339 8.02333 68.7814 7.08828 68.8216 7.04806C69.083 6.74643 70.0281 7.04806 70.4906 7.00784C70.9531 6.96763 72.1094 6.65594 72.421 6.70622C72.7026 6.75649 72.7931 7.24915 73.1751 7.15866L72.8534 6.67605C73.3259 6.63584 73.5773 6.64589 73.9191 6.98774C74.261 7.32958 75.8697 10.4464 75.9199 10.8687C75.9803 11.4016 75.4172 11.8641 75.3267 12.3366C75.0955 13.5834 75.7591 13.8247 76.1814 14.6692C76.6941 15.7149 77.408 17.595 77.6694 18.7211C77.7398 19.0227 77.5487 20.37 78.3129 20.37C78.4838 20.37 79.4993 19.5254 79.5797 19.3445C80.0422 18.3491 79.3183 16.9717 79.0871 15.9964C78.7854 14.6592 78.524 13.9353 78.152 12.6986C77.1868 9.49126 79.449 8.63664 79.5395 5.93204C79.5797 4.56465 78.5843 3.13694 78.6447 1.77961C78.2224 1.82988 77.6895 1.34728 77.4985 1.34728C77.2371 1.34728 76.8047 1.89021 76.3422 1.95053C75.8797 2.01086 75.4876 1.76956 75.0553 1.76956C72.5417 1.76956 70.1086 2.18178 67.6252 2.36276C67.4844 2.36276 67.2934 2.60406 67.0722 2.59401C66.6599 2.59401 65.6042 1.6489 66.1773 1.13614L66.1673 1.14619ZM82.2743 0.683692C82.2139 0.613312 81.6609 0.532878 81.49 0.492661C81.4096 0.583149 81.5403 2.43314 81.48 2.84537C81.4196 3.20732 81.1683 3.44862 81.0979 3.7402C80.746 5.28856 81.5504 6.98774 82.0128 8.44561C82.7468 8.82767 83.4104 8.46572 84.1745 8.47577C85.3509 8.48583 86.5172 8.58637 87.6131 8.79751C88.709 9.00865 89.6642 9.0187 90.6696 9.14941C93.1932 9.4812 94.6612 9.19968 95.747 11.9043C96.4709 13.7141 95.5057 13.7543 94.3796 14.6089C94.068 14.8401 93.8367 15.2122 93.5451 15.4032C92.0772 16.3583 89.6441 16.1573 87.9348 16.3181C87.2712 16.3784 86.678 16.4287 85.9943 16.479C84.8582 16.5594 83.3501 16.7203 82.5457 17.6051C82.0128 18.1782 82.3647 18.701 82.3044 19.3043C82.2642 19.6964 81.862 20.1589 82.1234 20.6314C82.6061 21.1542 83.8427 20.8023 83.9332 20.8727C83.9734 20.9129 83.8829 21.2146 83.9634 21.3151C84.3354 21.7474 86.7786 21.667 87.4321 21.667C88.6286 21.667 90.187 21.4961 91.3533 21.5061C91.7555 21.5061 92.037 21.8379 92.2883 21.7977C92.3989 21.7776 94.3696 21.2749 94.4802 21.2347C94.822 21.0939 95.1035 20.6113 95.4454 20.4002C97.1546 19.3545 98.0494 19.0026 99.3163 17.2632C100.834 15.182 99.3867 13.2717 99.1454 10.9994L99.6984 10.3559C98.6527 9.08908 95.7671 3.04645 94.2489 2.80515C94.0177 2.76493 93.8367 3.01629 93.6256 3.02634C93.2133 3.04645 92.5799 2.6845 92.1275 2.66439C91.6549 2.63423 91.1422 2.84537 90.5389 2.75488C89.9356 2.66439 89.4932 2.13151 88.8196 2.28233L89.1413 2.60406C88.8397 2.62417 88.5481 2.73477 88.2465 2.76493C87.2411 2.88558 85.6525 2.79509 84.6571 2.6845C83.5713 2.56385 84.1444 1.83994 83.6618 1.47798C83.1791 1.11603 82.6865 1.58858 82.4452 1.39755C82.234 1.22662 82.3647 0.804344 82.2642 0.683692H82.2743ZM49.5475 0.653529L49.457 7.67143C49.8592 8.92822 51.8097 8.49588 52.6443 8.888C53.3782 9.22985 53.4385 11.4016 53.6698 12.1054C53.8206 12.5578 54.2932 13.0505 54.273 13.4325C54.2429 14.076 53.5592 15.2725 53.5089 15.916C53.4385 16.8912 54.0317 17.9268 53.1269 18.8317L54.1826 20.0181C54.5445 19.8975 54.9467 19.7265 55.2383 19.4752C56.2135 18.6608 55.6203 18.2486 55.751 17.213C55.9722 15.373 56.8771 12.97 56.8671 11.1502C56.8671 10.7279 56.5956 10.5168 56.5554 10.185C56.3342 8.04344 56.2537 5.63041 55.8918 3.519C55.7611 2.79509 54.9869 2.28233 55.3991 1.24673L55.1679 0.995375C54.7456 1.42771 54.2831 1.10597 53.7201 1.1663C53.3279 1.20652 52.3828 1.63885 52.2521 1.61874C52.1415 1.59863 51.7193 1.1663 51.3774 1.02554C50.8043 0.784235 50.1709 0.603258 49.5375 0.663584L49.5475 0.653529ZM28.2023 2.44319L28.0414 1.69918L26.5634 1.6288C26.7042 3.34808 27.408 4.60487 27.2069 6.4247C27.1566 6.92741 26.8047 7.28937 26.8952 7.89262C26.9756 8.40539 27.6191 9.3706 27.5487 10.1046L27.9609 9.60185C30.6052 10.0644 33.4506 8.92822 36.0848 9.13936C37.593 9.26001 37.603 9.50131 39.2117 9.29017C39.8552 9.20974 40.4283 9.3706 41.0818 9.02876C41.6147 9.28012 41.5242 11.3513 41.6348 11.9445C41.6951 12.2662 42.228 13.4929 42.2079 13.5834C42.1777 13.7543 41.8158 13.9051 41.7554 14.1263C41.665 14.4681 42.047 14.7497 42.0571 15.0714C42.0571 15.4635 41.4639 15.9863 41.5845 16.3583L42.7207 16.9415C40.3881 16.6198 38.3068 17.5749 36.1049 17.8966C33.159 18.329 29.9316 18.6306 26.9455 19.0026C25.2765 19.2138 24.1303 19.0428 22.4311 19.7064C21.9284 19.9075 20.9531 20.5711 20.6515 21.0235C20.3498 21.476 20.1186 22.8735 20.0482 22.9439C19.817 23.145 18.7814 22.8132 18.9322 23.8588C19.0528 24.6934 20.7621 24.4822 21.4558 24.4319C23.9392 24.2811 26.6137 23.7281 29.1474 23.5271C34.1242 23.1349 38.719 21.5866 43.6557 20.923C44.259 20.8426 47.2853 20.5108 47.5367 20.8526C47.8282 21.2548 47.5065 21.5665 48.6728 21.3352C49.9095 21.0939 49.6179 19.1937 50.8747 19.0529L50.553 18.2485L51.5282 17.5045C51.6388 17.213 51.2769 17.3236 51.2065 17.1426C51.1462 16.9817 51.2869 16.7303 51.1059 16.5896C51.0456 16.5494 49.8994 16.0668 49.7486 16.0265C49.457 15.9461 48.0997 15.6948 47.8282 15.6746C47.5166 15.6646 45.2041 16.6298 45.013 16.4388C45.4956 14.7899 45.0432 13.1309 44.9125 11.4418C44.8421 10.5771 44.8924 10.5671 44.6913 9.66218C44.3293 8.00322 43.8769 6.24372 44.1986 4.54454C42.9117 4.91655 42.781 3.75025 42.1677 3.39835C41.2527 2.86547 38.1359 4.52443 36.9495 3.47879C35.934 3.67987 34.8783 3.72009 33.8528 3.7402C32.7669 3.76031 31.7313 3.56928 30.6656 3.7402L30.8264 3.25759C29.9316 3.45868 30.1226 3.05651 29.7808 2.76493C29.3082 2.36276 28.8156 2.43314 28.2324 2.43314L28.2023 2.44319ZM22.964 4.9065C21.9284 4.70541 23.3762 3.97145 22.23 3.75025C21.7474 3.65976 20.5509 3.99156 19.7969 3.91112C18.4395 3.76031 17.0721 3.72009 15.7349 3.56928C15.1116 3.4989 14.3072 3.10678 13.6034 3.09672C12.598 3.08667 11.2105 3.4989 10.1749 3.55922C9.94365 3.56928 9.7124 3.31792 9.54148 3.32797C7.07817 3.47879 5.93198 3.95134 3.38825 3.20732C3.05645 3.10678 1.0657 2.18178 0.975216 2.28233C0.955107 2.51357 1.02549 2.78504 0.965161 3.00623C0.764075 3.7402 0.0703288 5.51981 0.0301116 6.15323C-5.1263e-05 6.58556 0.341795 6.88719 0.341795 7.41002C0.341795 7.93284 -0.0201599 8.30485 -5.12629e-05 8.70702C0.0301116 9.13936 0.562989 9.5918 0.492609 10.1046C1.84994 9.76272 3.11678 9.81299 4.47411 9.89343C5.2684 9.9437 6.14312 10.185 6.59557 10.1951C7.06812 10.2051 8.13388 9.63202 8.71702 9.63202C9.16947 9.63202 9.5817 10.0141 10.0241 10.0845C10.5771 10.1649 11.1502 9.96381 11.5825 10.0241C12.045 10.0845 12.6684 10.5872 13.2716 10.5872C13.9151 10.5872 15.1015 10.1548 15.8857 10.0945C16.4488 10.0543 17.0219 10.0945 17.5749 10.1046C18.2183 12.4673 17.967 16.3382 16.8409 18.5502C16.4588 19.2942 14.7496 20.551 14.8099 21.0939C14.8401 21.3654 15.6746 21.9083 15.9662 22.2401C16.3683 22.6926 16.5091 23.4567 17.3235 23.6075C17.4039 23.5974 18.2787 22.7529 18.3189 22.6423C18.4999 22.22 18.2988 21.7575 18.4898 21.3453C18.6808 20.933 19.3746 20.8124 19.6259 20.5208C19.8773 20.2292 19.9678 19.5657 20.2292 19.1635C20.561 18.6407 21.2246 18.2687 21.5161 17.6855C22.421 15.8556 23.1148 13.4828 23.4265 11.4418C23.708 9.56164 23.0444 8.20431 22.8232 6.41464C22.7629 5.90187 22.7629 5.37905 22.9539 4.89644L22.964 4.9065ZM49.4369 11.6328C48.8337 12.9097 49.9698 13.6135 51.0959 13.2113C51.9606 12.9097 53.6597 11.8842 52.232 11.0798C51.6187 10.738 50.6636 11.0095 49.9698 10.919C49.9195 11.2105 49.457 11.5926 49.4369 11.6328ZM87.4824 11.2809C86.6982 11.3915 85.8335 12.1255 85.9541 12.97C85.9742 13.0806 87.1305 14.3475 87.2813 14.3575C88.7894 14.5084 89.9759 10.9391 87.4824 11.2809ZM33.0484 11.7736C32.8574 11.8138 31.7414 12.216 31.6308 12.3165C30.7058 13.1007 31.671 15.916 32.8373 15.9562C33.3199 15.9763 33.6718 15.6244 34.0337 15.5238C34.2549 15.4635 34.4862 15.6646 34.7174 15.5741C35.4514 15.2825 35.4916 13.6236 35.371 12.96C35.2302 12.226 33.7623 11.6328 33.0484 11.7736ZM9.93359 11.9143C9.75262 11.7434 6.33416 12.3467 6.02247 12.9801C5.90182 13.5331 6.41459 13.6839 6.47492 13.9554C6.51513 14.1363 6.63579 16.117 6.62573 16.3583C6.57546 17.3437 5.81133 17.7157 5.75101 18.0274C5.72084 18.1882 5.88171 18.4195 5.8415 18.6206C5.77112 18.9725 5.379 19.3042 5.58008 19.7567C5.96215 20.2192 8.35507 23.4064 8.58632 23.4466C8.77735 23.4768 8.87789 23.3461 8.97844 23.2154C9.70235 22.3406 8.25453 20.3398 8.04339 19.4249C7.70154 17.967 9.49121 15.4937 10.0241 13.9956C10.0945 13.8046 10.4263 12.8192 10.4363 12.7589C10.4665 12.4372 10.1447 12.4975 10.004 12.3266C9.91349 12.216 9.99392 11.9445 9.9537 11.9143H9.93359ZM71.9887 22.5317C71.6871 22.2401 70.923 22.3306 70.5107 22.3205C69.8371 23.3059 70.5711 24.1303 71.4558 24.5727C72.4009 24.3415 72.6422 23.155 71.9887 22.5417V22.5317ZM90.2775 24.3012C89.7547 23.9594 88.4878 23.7583 88.337 24.5325C87.9147 26.674 90.8405 25.0955 90.2775 24.3012ZM73.7683 24.3012C73.336 24.442 73.6276 25.5681 73.1751 25.9803C75.3167 27.7096 76.2417 23.4868 73.7683 24.3012ZM36.0144 26.4026C36.2557 26.5836 39.4631 25.8496 38.1862 25.4474C37.6734 25.2866 37.2008 25.5379 36.7484 25.548C36.3261 25.558 35.6424 25.6083 35.2805 25.5982C34.7375 25.5781 33.6416 24.6129 33.2395 25.5078C33.0987 25.8194 33.9634 25.8395 34.0639 26.1512L34.9587 26.4026L35.5318 28.3632C36.306 28.0213 35.9441 27.0762 36.0245 26.4126L36.0144 26.4026ZM77.036 26.6137C76.1612 26.6238 75.5379 27.3577 76.1009 28.1219C76.1713 28.2224 77.0259 28.8257 77.1466 28.8156C78.1118 28.7352 78.8558 26.5836 77.046 26.6137H77.036ZM88.518 28.4939C88.9805 29.2278 91.8359 27.8102 89.634 27.2773C88.9 27.0963 88.156 27.9308 88.518 28.4939Z" fill="white"/>
<path d="M28.2023 2.44406C28.7955 2.44406 29.2781 2.36362 29.7507 2.77585C30.0925 3.06742 29.9015 3.4696 30.7963 3.26851L30.6355 3.75112C31.7012 3.58019 32.7368 3.78128 33.8227 3.75112C34.8482 3.73101 35.9039 3.69079 36.9194 3.48971C38.1058 4.53535 41.2226 2.87639 42.1376 3.40927C42.7509 3.77123 42.8816 4.93752 44.1685 4.55546C43.8468 6.24458 44.2992 8.00408 44.6612 9.6731C44.8623 10.578 44.812 10.588 44.8824 11.4527C45.0131 13.1418 45.4655 14.8008 44.9829 16.4497C45.174 16.6407 47.4865 15.6655 47.7981 15.6856C48.0696 15.6956 49.4269 15.957 49.7185 16.0375C49.8693 16.0777 51.0155 16.5603 51.0758 16.6005C51.2568 16.7413 51.1161 16.9826 51.1764 17.1535C51.2468 17.3345 51.5987 17.2239 51.4981 17.5154L50.5229 18.2595L50.8446 19.0638C49.5878 19.1945 49.8794 21.0948 48.6427 21.3461C47.4764 21.5774 47.7981 21.2657 47.5066 20.8635C47.2552 20.5217 44.2289 20.8535 43.6256 20.9339C38.6889 21.5975 34.1042 23.1459 29.1173 23.538C26.5836 23.7391 23.9091 24.292 21.4257 24.4429C20.7219 24.4831 19.0227 24.6942 18.9021 23.8698C18.7513 22.8241 19.7869 23.1559 20.0181 22.9548C20.0986 22.8844 20.3197 21.4869 20.6214 21.0345C20.923 20.582 21.8882 19.9084 22.401 19.7173C24.1002 19.0538 25.2564 19.2247 26.9154 19.0135C29.9115 18.6415 33.1289 18.35 36.0748 17.9076C38.2868 17.5758 40.368 16.6206 42.6906 16.9524L41.5544 16.3693C41.4338 15.9973 42.027 15.4744 42.027 15.0823C42.027 14.7606 41.6349 14.4791 41.7253 14.1372C41.7857 13.916 42.1476 13.7652 42.1778 13.5943C42.1979 13.5138 41.665 12.2872 41.6047 11.9554C41.4941 11.3622 41.5846 9.29103 41.0517 9.03968C40.3982 9.39158 39.8351 9.22065 39.1816 9.30109C37.5729 9.51223 37.5629 9.28098 36.0547 9.15027C33.4205 8.92908 30.5751 10.0753 27.9308 9.61277L27.5186 10.1155C27.589 9.38152 26.9455 8.41631 26.8651 7.90354C26.7746 7.31034 27.1165 6.93833 27.1768 6.43561C27.3779 4.61579 26.6741 3.359 26.5333 1.63971L28.0113 1.71009L28.1722 2.45411L28.2023 2.44406Z" fill="white"/>
<path d="M66.1673 1.14595C65.5942 1.65872 66.6499 2.60383 67.0621 2.60383C67.2833 2.60383 67.4844 2.38263 67.6151 2.37258C70.0985 2.1916 72.5317 1.77937 75.0453 1.77937C75.4776 1.77937 75.8697 2.01062 76.3322 1.96035C76.7947 1.91008 77.227 1.35709 77.4885 1.35709C77.6795 1.35709 78.2124 1.8397 78.6346 1.78943C78.5743 3.14676 79.5697 4.57447 79.5295 5.94185C79.439 8.64646 77.1868 9.50108 78.142 12.7084C78.514 13.9451 78.7754 14.679 79.077 16.0062C79.2982 16.9714 80.0322 18.3589 79.5697 19.3543C79.4893 19.5353 78.4738 20.3798 78.3028 20.3798C77.5387 20.3798 77.7298 19.0325 77.6594 18.7309C77.398 17.6048 76.6741 15.7247 76.1713 14.679C75.7591 13.8244 75.0855 13.5932 75.3167 12.3464C75.4072 11.8739 75.9703 11.4114 75.9099 10.8785C75.8597 10.4663 74.2409 7.3394 73.9091 6.99755C73.5773 6.65571 73.3159 6.6356 72.8434 6.68587L73.1651 7.16848C72.783 7.26902 72.6925 6.77636 72.411 6.71603C72.0993 6.65571 70.9532 6.97745 70.4806 7.01766C70.0081 7.05788 69.073 6.75625 68.8116 7.05788C68.7714 7.0981 68.329 8.03315 68.3089 8.10353C67.967 9.60162 68.8116 13.1407 69.3646 14.6388C69.5355 15.1114 70.0885 15.6443 70.0784 16.0565C70.0784 16.3782 69.817 16.5592 69.7969 16.7402C69.6159 18.2986 69.7969 19.304 68.6005 20.6211C68.0776 21.1942 64.9407 22.3806 64.076 22.6119C62.0149 23.1548 59.5817 23.2554 57.4603 23.4866C56.5554 23.5871 55.5902 24.0698 54.5848 23.7179C54.1223 23.0241 55.1377 22.7225 55.178 22.1695C55.2081 21.7975 54.9166 21.6567 54.9869 21.5059C55.0674 21.3149 55.9723 20.5709 56.2236 20.2793C56.9676 19.4247 56.9576 18.8918 58.3049 18.4494C61.0296 17.5646 63.7844 17.5143 66.3483 15.9057C68.2586 14.7092 66.6801 14.0858 66.3583 12.7486C66.2779 12.4168 66.3583 12.0348 66.2779 11.6929C66.0064 10.4965 65.745 9.29999 65.5238 8.09347C65.3026 7.75163 63.3722 7.67119 63.3018 6.77636C63.2918 6.59538 63.4124 6.34403 63.4024 6.12283C63.2918 4.28289 63.704 2.52339 63.6738 0.703565C63.6738 0.391882 63.3219 0.331556 63.3923 0.00981865L66.1573 1.15601L66.1673 1.14595Z" fill="white"/>
<path d="M82.2743 0.683928C82.3748 0.804579 82.2441 1.22686 82.4553 1.39778C82.6966 1.58881 83.2093 1.12632 83.6718 1.47822C84.1343 1.83012 83.5814 2.56408 84.6672 2.68473C85.6525 2.79533 87.2512 2.88582 88.2566 2.76517C88.5582 2.72495 88.8498 2.62441 89.1514 2.6043L88.8297 2.28256C89.5134 2.13175 89.9156 2.66462 90.549 2.75511C91.1824 2.8456 91.665 2.63446 92.1376 2.66462C92.6101 2.69479 93.2234 3.04669 93.6356 3.02658C93.8367 3.02658 94.0278 2.76517 94.259 2.80538C95.7772 3.03663 98.6628 9.08932 99.7084 10.3562L99.1555 10.9996C99.3968 13.2719 100.845 15.1822 99.3264 17.2635C98.0595 19.0029 97.1647 19.3548 95.4555 20.4004C95.1036 20.6115 94.8221 21.0942 94.4903 21.2349C94.3797 21.2751 92.4191 21.7879 92.2984 21.798C92.0471 21.8281 91.7555 21.5064 91.3634 21.5064C90.187 21.4863 88.6387 21.6773 87.4422 21.6672C86.7887 21.6672 84.3455 21.7477 83.9735 21.3153C83.883 21.2148 83.9735 20.9132 83.9433 20.873C83.8629 20.7925 82.6161 21.1444 82.1335 20.6317C81.8721 20.1591 82.2642 19.6865 82.3145 19.3045C82.3849 18.7012 82.033 18.1784 82.5558 17.6053C83.3702 16.7205 84.8784 16.5697 86.0044 16.4792C86.6881 16.429 87.2813 16.3787 87.9449 16.3184C89.6441 16.1575 92.0772 16.3586 93.5552 15.4034C93.8468 15.2124 94.0881 14.8404 94.3897 14.6091C95.5259 13.7545 96.4911 13.7143 95.7571 11.9045C94.6712 9.19992 93.2033 9.47138 90.6797 9.14965C89.6743 9.01894 88.7292 9.00889 87.6232 8.79775C86.5172 8.58661 85.361 8.48606 84.1846 8.47601C83.4205 8.47601 82.7569 8.82791 82.0229 8.44585C81.5604 6.98797 80.7561 5.2888 81.108 3.74043C81.1784 3.44886 81.4297 3.20756 81.4901 2.8456C81.5504 2.43338 81.4197 0.583385 81.5001 0.492896C81.671 0.533113 82.224 0.613548 82.2843 0.683928H82.2743Z" fill="white"/>
<path d="M22.964 4.90596C22.7729 5.38856 22.7729 5.91139 22.8333 6.42416C23.0545 8.21382 23.718 9.5611 23.4365 11.4513C23.1349 13.4923 22.4411 15.8651 21.5262 17.695C21.2346 18.2782 20.571 18.6502 20.2393 19.173C19.9778 19.5752 19.8874 20.2488 19.636 20.5303C19.3846 20.8119 18.6909 20.9325 18.4999 21.3548C18.3088 21.7771 18.52 22.2396 18.3289 22.6518C18.2787 22.7624 17.414 23.5969 17.3336 23.617C16.5091 23.4662 16.3784 22.7021 15.9762 22.2496C15.6847 21.9178 14.8502 21.3749 14.82 21.1034C14.7597 20.5605 16.4689 19.3138 16.851 18.5597C17.977 16.3477 18.2284 12.4869 17.5849 10.1141C17.0319 10.104 16.4488 10.0638 15.8958 10.104C15.1116 10.1644 13.9252 10.5967 13.2817 10.5967C12.6784 10.5967 12.0551 10.094 11.5926 10.0336C11.1602 9.97332 10.5871 10.1744 10.0341 10.094C9.59176 10.0236 9.17953 9.65159 8.72709 9.64153C8.14394 9.64153 7.07818 10.2146 6.60563 10.2046C6.15319 10.1945 5.27846 9.95322 4.48418 9.90294C3.12685 9.82251 1.84995 9.76218 0.502673 10.1141C0.573054 9.60132 0.0401757 9.14887 0.0100129 8.71654C-0.0100957 8.31436 0.351859 7.96246 0.351859 7.42959C0.351859 6.89671 -4.14442e-05 6.59508 0.0301214 6.15269C0.0703386 5.50922 0.754031 3.72961 0.965171 2.99564C1.0255 2.7845 0.965171 2.50298 0.975225 2.27173C1.05566 2.17119 3.05646 3.10624 3.38826 3.19673C5.93199 3.94075 7.07818 3.46819 9.54149 3.31738C9.71241 3.30732 9.94366 3.55868 10.1749 3.54863C11.2206 3.4883 12.608 3.06602 13.6034 3.08613C14.3072 3.08613 15.1116 3.4883 15.7349 3.55868C17.0722 3.7095 18.4395 3.74971 19.7969 3.90053C20.5509 3.98096 21.7474 3.64917 22.23 3.73966C23.3762 3.96085 21.9284 4.69482 22.964 4.8959V4.90596Z" fill="white"/>
<path d="M49.5475 0.653832C50.1809 0.593506 50.8043 0.774483 51.3875 1.01579C51.7293 1.15655 52.1516 1.58888 52.2622 1.60899C52.3828 1.6291 53.338 1.20682 53.7301 1.15655C54.2831 1.09622 54.7557 1.41796 55.1779 0.985624L55.4092 1.23698C54.997 2.27257 55.7711 2.78534 55.9018 3.50925C56.2738 5.62065 56.3442 8.03369 56.5654 10.1753C56.5956 10.507 56.8671 10.7182 56.8771 11.1405C56.8771 12.9603 55.9823 15.3733 55.7611 17.2032C55.6304 18.2388 56.2236 18.641 55.2483 19.4654C54.9567 19.7168 54.5546 19.8877 54.1926 20.0084L53.1369 18.8219C54.0418 17.9271 53.4586 16.8915 53.519 15.9062C53.5592 15.2627 54.2529 14.0663 54.2831 13.4228C54.3032 13.0407 53.8307 12.5481 53.6798 12.0956C53.4486 11.3918 53.3883 9.22009 52.6543 8.87825C51.8299 8.48613 49.8693 8.91846 49.4671 7.66168L49.5576 0.643777L49.5475 0.653832Z" fill="white"/>
<path d="M9.93359 11.9139C9.93359 11.9139 9.90343 12.2155 9.98387 12.3261C10.1146 12.497 10.4363 12.4367 10.4162 12.7584C10.4162 12.8188 10.0744 13.8041 10.004 13.9951C9.4711 15.4932 7.68143 17.9766 8.02328 19.4244C8.24447 20.3494 9.68224 22.3402 8.95833 23.2149C8.85779 23.3356 8.75724 23.4763 8.56621 23.4462C8.33496 23.4059 5.94204 20.2187 5.55998 19.7562C5.36894 19.2937 5.75101 18.972 5.82139 18.6201C5.8616 18.419 5.70074 18.1878 5.7309 18.0269C5.79122 17.7152 6.55535 17.3432 6.60562 16.3579C6.61568 16.1266 6.49503 14.1359 6.45481 13.9549C6.39448 13.6834 5.88171 13.5326 6.00236 12.9796C6.31405 12.3462 9.73251 11.743 9.91349 11.9139H9.93359Z" fill="white"/>
<path d="M33.0485 11.7733C33.7623 11.6426 35.2302 12.2257 35.371 12.9597C35.4917 13.6132 35.4514 15.2822 34.7175 15.5738C34.4862 15.6643 34.255 15.4632 34.0338 15.5235C33.6718 15.6241 33.33 15.9659 32.8373 15.9559C31.661 15.9157 30.6958 13.1005 31.6308 12.3162C31.7515 12.2157 32.8574 11.8135 33.0485 11.7733Z" fill="white"/>
<path d="M87.4825 11.2805C89.9759 10.9286 88.7895 14.5079 87.2814 14.3571C87.1406 14.347 85.9743 13.0802 85.9542 12.9696C85.8336 12.1351 86.6982 11.3911 87.4825 11.2805Z" fill="white"/>
<path d="M49.437 11.6321C49.437 11.6321 49.9196 11.2098 49.9699 10.9182C50.6737 11.0087 51.6288 10.7372 52.2321 11.0791C53.6598 11.8834 51.9506 12.909 51.0959 13.2106C49.9699 13.6027 48.8337 12.909 49.437 11.6321Z" fill="white"/>
<path d="M36.0145 26.4026C35.9441 27.0661 36.3061 28.0113 35.5219 28.3531L34.9488 26.3925L34.0539 26.1412C33.9534 25.8295 33.0887 25.8194 33.2295 25.4977C33.6317 24.6028 34.7276 25.5681 35.2705 25.5882C35.6325 25.5982 36.3061 25.5479 36.7384 25.5379C37.2009 25.5278 37.6634 25.2765 38.1762 25.4373C39.4531 25.8395 36.2458 26.5735 36.0045 26.3925L36.0145 26.4026Z" fill="white"/>
<path d="M77.036 26.6128C78.8558 26.5826 78.1018 28.7342 77.1365 28.8147C77.0259 28.8147 76.1713 28.2114 76.0909 28.1209C75.5279 27.3568 76.1512 26.6228 77.0259 26.6128H77.036Z" fill="white"/>
<path d="M71.9888 22.531C72.6423 23.1443 72.401 24.3407 71.4559 24.5619C70.5712 24.1296 69.8372 23.3051 70.5108 22.3098C70.9231 22.3198 71.6872 22.2293 71.9888 22.5209V22.531Z" fill="white"/>
<path d="M73.7684 24.3006C76.2418 23.4862 75.3168 27.709 73.1752 25.9797C73.6276 25.5574 73.3361 24.4414 73.7684 24.3006Z" fill="white"/>
<path d="M90.2776 24.3018C90.8406 25.0861 87.9048 26.6746 88.3371 24.5331C88.4879 23.7589 89.7648 23.97 90.2776 24.3018Z" fill="white"/>
<path d="M88.518 28.4941C88.1561 27.931 88.9001 27.1066 89.6341 27.2775C91.8359 27.8104 88.9805 29.218 88.518 28.4941Z" fill="white"/>
</g>
<defs>
<clipPath id="clip0_119_1712">
<rect width="99.46" height="28.67" fill="white" transform="scale(1.00543)"/>
</clipPath>
</defs>
</svg>
